<?xml version="1.0" encoding="utf-8"?>
<!-- Generator: Adobe Illustrator 25.2.1, SVG Export Plug-In . SVG Version: 6.00 Build 0)  -->
<svg version="1.1" id="Layer_1" xmlns="http://www.w3.org/2000/svg" xmlns:xlink="http://www.w3.org/1999/xlink" x="0px" y="0px"
	 viewBox="0 0 1499.8 485.2" style="enable-background:new 0 0 1499.8 485.2;" xml:space="preserve">
<style type="text/css">
	.st0{fill:#003366;}
	.st1{fill:#E4E4E4;}
	.st2{fill:#007BFF;}
	.st3{opacity:0.3;fill:#FF7700;}
	.st4{fill:#FF7700;}
</style>
<g>
	<path class="st0" d="M121.3,32.8v113.7c12.1-21.2,45.8-32.9,67.5-32.9c60,0,104.6,36.7,104.6,107.5c0,67.5-45.4,107.5-105.8,107.5
		c-25,0-50.4-8.3-66.2-32.9l-3.4,28.3H70.4V32.8H121.3z M124.6,221.2c0,37.1,27.5,60.4,59.6,60.4c32.5,0,58.3-24.6,58.3-60.4
		c0-37.1-25.8-60-58.3-60C152.1,161.2,124.6,185.3,124.6,221.2z"/>
	<path class="st0" d="M670.9,118.7h48.7v205.4h-47.9l-2.5-30c-11.7,24.2-43.7,35.8-66.7,36.2c-60.8,0.4-105.8-37.1-105.8-109.1
		c0-70.8,47.1-107.9,107.1-107.5c27.5,0,53.7,12.9,65.4,33.3L670.9,118.7z M547.5,221.2c0,39.1,27.1,62.5,60.8,62.5
		c80,0,80-124.6,0-124.6C574.6,159.1,547.5,182,547.5,221.2z"/>
	<path class="st0" d="M915.6,97.8l37.5,28.3l-22.9,29.2c15.8,17.9,21.7,38.3,21.7,60.8c0,25.4-9.6,61.2-43.4,76.7
		c34.2,17.1,42.5,41.7,42.5,67.9c0,56.7-43.3,91.7-102.9,91.7c-59.6,0-104.2-36.3-104.2-91.7h50.4c0,26.7,24.6,44.2,53.8,44.2
		c29.1,0,52.1-15.8,52.1-44.2c0-28.3-26.7-41.3-52.1-41.3c-64.2,0-104.2-39.2-104.2-103.3S790.6,112,848.1,112
		c16.2,0,32.9,2.1,47.1,11.7L915.6,97.8z M794.3,216.2c0,35.8,24.2,57.1,53.8,57.1c29.1,0,53.3-21.7,53.3-57.1s-24.2-57.9-53.3-57.9
		C818.5,158.3,794.3,180.3,794.3,216.2z"/>
	<path class="st0" d="M980.6,117.8v206.2h50.9V117.8H980.6z"/>
	<path class="st0" d="M1109.5,32.8v291.2h-50.4V32.8H1109.5z"/>
	<path class="st0" d="M1186.3,239.5c3.3,25.4,25.4,43.7,61.2,43.7c18.8,0,43.3-7.1,55-19.1l32.5,32.1
		c-21.7,22.5-57.1,33.3-88.3,33.3c-70.8,0-112.9-43.8-112.9-109.6c0-62.5,42.5-107.5,109.2-107.5c68.7,0,111.6,42.5,103.7,127.1
		H1186.3z M1297.9,197.4c-3.3-26.7-24.2-40-53.3-40c-27.5,0-50,13.3-57.5,40H1297.9z"/>
	<circle class="st1" cx="1400.6" cy="298.8" r="28.7"/>
	<circle class="st2" cx="1006.1" cy="61.6" r="28.7"/>
	<path class="st3" d="M445.9,192.2H344.2v57.5h101.7c15.9,0,28.7-12.9,28.7-28.7C474.6,205.1,461.8,192.2,445.9,192.2z"/>
	
		<ellipse transform="matrix(0.7071 -0.7071 0.7071 0.7071 -55.4271 308.1084)" class="st4" cx="344.2" cy="221" rx="28.7" ry="28.7"/>
</g>
</svg>
